<svg width="13" height="13" viewBox="0 0 13 13" fill="none" xmlns="http://www.w3.org/2000/svg">
<rect y="0.511963" width="12.288" height="12.288" rx="1.536" fill="#905CFF"/>
<rect x="2.56006" width="1.024" height="0.512" fill="#905CFF"/>
<rect x="9.21582" width="1.024" height="0.512" fill="#905CFF"/>
<rect x="1.02441" y="2.04785" width="10.24" height="0.512" fill="white"/>
<rect x="1.53613" y="3.58398" width="1.536" height="1.536" rx="0.256" fill="white"/>
<rect x="1.53613" y="6.1438" width="1.536" height="1.536" rx="0.256" fill="white"/>
<rect x="1.53613" y="8.70386" width="1.536" height="1.536" rx="0.256" fill="white"/>
<rect x="4.09619" y="3.58398" width="1.536" height="1.536" rx="0.256" fill="white"/>
<rect x="4.09619" y="6.1438" width="1.536" height="1.536" rx="0.256" fill="white"/>
<rect x="4.09619" y="8.70386" width="1.536" height="1.536" rx="0.256" fill="white"/>
<rect x="6.65625" y="3.58398" width="1.536" height="1.536" rx="0.256" fill="white"/>
<rect x="6.65625" y="6.1438" width="1.536" height="1.536" rx="0.256" fill="white"/>
<rect x="9.21582" y="3.58398" width="1.536" height="1.536" rx="0.256" fill="white"/>
</svg>
